<svg xmlns="http://www.w3.org/2000/svg" viewBox="0 0 512 512">
  <!-- Brand Background (Maskable Standard) -->
  <rect fill="#374151" width="512" height="512"/>
  
  <!-- Scaled and Centered Bulb Group (70% size for 'lighter' visual perception) -->
  <g transform="translate(76.8, 96.4) scale(0.7)">
    <path fill="#ee7221" d="M320.32,378.76c-.94,79.78-141.66,69.05-128.65-10.72h128.65v10.72Z"/>
    <path fill="#ee7221" d="M256,78.57c-110.4-3.82-170.81,141.04-93.33,217.17,11.05,11.66,20.9,25.19,25.73,40.13h58.49v-62.53c-32.39-5.96-44.73-35.88-41.43-66.55-11.02-.04-11.02-16.81,0-16.85,0,0,16.85,0,16.85,0v-25.27c0-4.66,3.76-8.42,8.42-8.42s8.42,3.76,8.42,8.42v25.27h33.69v-25.27h16.85c11.02.04,11.02,16.81,0,16.85,3.32,30.67-9.06,60.61-41.43,66.55v62.53h58.49c4.89-14.94,14.67-28.48,25.73-40.14,77.49-76.12,17.04-221.01-93.34-217.16Z"/>
  </g>
</svg>
