<svg xmlns="http://www.w3.org/2000/svg" viewBox="0 0 358.9 495.1">
  <path fill="#888888" d="M269.45,405.1H89.45v15c0,41.44,33.56,75,75,75h30c41.44,0,75-33.56,75-75v-15Z"/>
  <path fill="#888888" d="M247.51,183.21c0,7.49-6.12,13.61-13.61,13.61h-108.89c-7.49,0-13.61-6.12-13.61-13.61s6.12-13.61,13.61-13.61h108.89c7.49,0,13.61,6.12,13.61,13.61Z"/>
  <path fill="#888888" d="M179.45.1C24.98-5.24-59.54,197.44,48.86,303.95c15.46,16.31,29.24,35.25,35.99,56.15h189.19c6.84-20.91,20.53-39.84,36-56.16C418.46,197.45,333.89-5.27,179.45.1ZM179.45,305.71c-67.65,0-122.5-54.85-122.5-122.5s54.85-122.5,122.5-122.5,122.5,54.85,122.5,122.5-54.85,122.5-122.5,122.5Z"/>
</svg>
