<svg xmlns="http://www.w3.org/2000/svg" viewBox="0 0 358.9 495.1">
  <path fill="#ee7221" d="M269.45,420.1c0,41.44-33.56,75-75,75h-30c-41.44,0-75-33.56-75-75v-15h180v15Z"/>
  <path fill="#ee7221" d="M179.45.1C24.98-5.24-59.54,197.44,48.86,303.95c15.46,16.31,29.24,35.25,35.99,56.15h189.19c6.84-20.91,20.53-39.84,36-56.16C418.46,197.45,333.89-5.27,179.45.1ZM179.45,305.69c-67.65,0-122.5-54.85-122.5-122.5s54.85-122.5,122.5-122.5,122.5,54.85,122.5,122.5-54.85,122.5-122.5,122.5Z"/>
  <path fill="#ee7221" d="M234.02,169.58h-40.83v-40.83c0-7.49-6.12-13.61-13.61-13.61s-13.61,6.12-13.61,13.61v40.83h-40.83c-7.49,0-13.61,6.12-13.61,13.61s6.12,13.61,13.61,13.61h40.83v40.83c0,7.49,6.12,13.61,13.61,13.61s13.61-6.12,13.61-13.61v-40.83h40.83c7.49,0,13.61-6.12,13.61-13.61s-6.12-13.61-13.61-13.61Z"/>
</svg>
